<svg width="318" height="85" viewBox="0 0 318 85" fill="none" xmlns="http://www.w3.org/2000/svg">
<path d="M144.928 66.384C142.325 66.384 140.405 65.7013 139.168 64.336C137.973 62.928 137.376 61.2 137.376 59.152C137.376 58.256 137.482 57.2533 137.696 56.144C137.909 54.992 138.122 53.8826 138.336 52.816C138.592 51.7493 138.762 51.0666 138.848 50.768C139.189 49.2746 139.509 47.8026 139.808 46.352C140.106 44.9013 140.256 43.728 140.256 42.832C140.256 40.656 139.488 39.568 137.952 39.568C136.885 39.568 135.925 40.08 135.072 41.104C134.261 42.128 133.6 43.4506 133.088 45.072C131.808 51.7706 130.506 58.7466 129.184 66H119.968L128.736 25.168C127.242 25.04 124.426 24.6773 120.288 24.08L111.264 66H102.048L111.2 23.504C107.146 23.6746 103.989 24.72 101.728 26.64C99.4665 28.56 98.3358 31.8666 98.3358 36.56C98.3358 38.1386 98.4851 39.248 98.7838 39.888C99.0825 40.4853 99.2318 40.8266 99.2318 40.912C96.9278 40.912 95.1998 40.4426 94.0478 39.504C92.9385 38.5226 92.3838 36.9226 92.3838 34.704C92.3838 31.7173 93.1945 28.9653 94.8158 26.448C96.4371 23.9306 98.9331 21.904 102.304 20.368C105.674 18.832 109.877 18.064 114.912 18.064C115.765 18.064 117.578 18.256 120.352 18.64C125.429 19.3653 129.376 19.728 132.192 19.728C135.861 19.728 138.442 19.216 139.936 18.192C139.296 19.3866 138.762 20.5173 138.336 21.584C137.952 22.6506 137.461 24.4 136.864 26.832C136.266 29.2213 135.498 32.7626 134.56 37.456C136.736 34.9813 139.274 33.744 142.176 33.744C144.352 33.744 146.08 34.3413 147.36 35.536C148.64 36.7306 149.28 38.544 149.28 40.976C149.28 42.2133 149.13 43.6 148.832 45.136C148.533 46.6293 148.106 48.464 147.552 50.64C147.21 51.9626 146.89 53.264 146.592 54.544C146.336 55.7813 146.208 56.7626 146.208 57.488C146.208 58.3413 146.4 59.0026 146.784 59.472C147.168 59.9413 147.829 60.176 148.768 60.176C150.048 60.176 151.072 59.728 151.84 58.832C152.608 57.8933 153.376 56.464 154.144 54.544H156.832C155.253 59.2373 153.418 62.3946 151.328 64.016C149.28 65.5946 147.146 66.384 144.928 66.384Z" fill="white"/>
<path d="M163.149 66.384C160.034 66.384 157.602 65.5733 155.853 63.952C154.103 62.288 153.229 59.7066 153.229 56.208C153.229 53.264 153.805 50.0213 154.957 46.48C156.109 42.9386 157.986 39.888 160.589 37.328C163.191 34.7253 166.498 33.424 170.509 33.424C175.202 33.424 177.549 35.472 177.549 39.568C177.549 41.9573 176.866 44.1546 175.501 46.16C174.135 48.1653 172.322 49.7866 170.061 51.024C167.799 52.2186 165.389 52.9013 162.829 53.072C162.743 54.0106 162.701 54.6506 162.701 54.992C162.701 58.5333 164.023 60.304 166.669 60.304C167.863 60.304 169.143 59.984 170.509 59.344C171.874 58.704 173.111 57.8933 174.221 56.912C173.069 63.2266 169.378 66.384 163.149 66.384ZM163.277 50C164.898 49.9573 166.413 49.424 167.821 48.4C169.271 47.376 170.423 46.0746 171.277 44.496C172.173 42.8746 172.621 41.1893 172.621 39.44C172.621 37.6906 172.087 36.816 171.021 36.816C169.527 36.816 168.034 38.1813 166.541 40.912C165.09 43.6 164.002 46.6293 163.277 50Z" fill="white"/>
<path d="M210.573 23.632H209.805C206.008 23.632 203.043 24.592 200.909 26.512C198.819 28.3893 197.773 31.7386 197.773 36.56C197.773 38.1386 197.923 39.248 198.221 39.888C198.52 40.4853 198.669 40.8266 198.669 40.912C196.365 40.912 194.637 40.4426 193.485 39.504C192.376 38.5226 191.821 36.9226 191.821 34.704C191.821 31.6746 192.568 28.9226 194.061 26.448C195.555 23.9306 197.923 21.904 201.165 20.368C204.451 18.832 208.611 18.064 213.645 18.064C216.461 18.064 219.491 18.32 222.733 18.832C225.464 19.3013 227.896 19.536 230.029 19.536C232.76 19.536 235.235 19.088 237.453 18.192C237.368 20.9653 236.664 23.0133 235.341 24.336C234.019 25.6586 232.056 26.32 229.453 26.32C228.088 26.32 226.723 26.2133 225.357 26C223.992 25.7866 222.051 25.424 219.533 24.912L210.701 66H201.485L210.573 23.632Z" fill="white"/>
<path d="M228.586 66.384C226.538 66.384 224.874 65.744 223.594 64.464C222.356 63.184 221.738 61.264 221.738 58.704C221.738 57.6373 221.908 56.2506 222.25 54.544L226.602 34H235.818L231.21 55.76C231.082 56.4 231.018 56.9973 231.018 57.552C231.018 59.3013 231.658 60.176 232.938 60.176C234.132 60.176 235.156 59.6853 236.01 58.704C236.863 57.68 237.546 56.2933 238.058 54.544L242.41 34H251.626L247.018 55.76C246.847 56.4 246.762 57.0826 246.762 57.808C246.762 58.6613 246.954 59.28 247.338 59.664C247.764 60.0053 248.447 60.176 249.386 60.176C250.58 60.176 251.604 59.664 252.458 58.64C253.354 57.616 254.058 56.2506 254.57 54.544H257.258C255.679 59.152 253.716 62.288 251.37 63.952C249.066 65.5733 246.74 66.384 244.394 66.384C242.559 66.384 241.087 65.872 239.978 64.848C238.911 63.824 238.271 62.3093 238.058 60.304C236.607 62.6506 235.071 64.2506 233.45 65.104C231.871 65.9573 230.25 66.384 228.586 66.384Z" fill="white"/>
<path d="M260.898 66.384C258.85 66.384 257.186 65.744 255.906 64.464C254.669 63.184 254.05 61.264 254.05 58.704C254.05 57.6373 254.221 56.2506 254.562 54.544L261.41 22.48L270.882 21.2L263.522 55.76C263.352 56.4 263.266 57.0826 263.266 57.808C263.266 58.6613 263.458 59.28 263.842 59.664C264.269 60.0053 264.952 60.176 265.89 60.176C267.128 60.176 268.28 59.664 269.346 58.64C270.413 57.5733 271.181 56.208 271.65 54.544H274.338C272.76 59.152 270.733 62.288 268.258 63.952C265.784 65.5733 263.33 66.384 260.898 66.384Z" fill="white"/>
<path d="M282.313 30.544C280.905 30.544 279.71 30.0533 278.729 29.072C277.747 28.0906 277.257 26.896 277.257 25.488C277.257 24.08 277.747 22.8853 278.729 21.904C279.71 20.88 280.905 20.368 282.313 20.368C283.721 20.368 284.915 20.88 285.897 21.904C286.921 22.8853 287.433 24.08 287.433 25.488C287.433 26.896 286.921 28.0906 285.897 29.072C284.915 30.0533 283.721 30.544 282.313 30.544ZM277.961 66.384C275.913 66.384 274.249 65.744 272.969 64.464C271.731 63.184 271.113 61.264 271.113 58.704C271.113 57.6373 271.283 56.2506 271.625 54.544L275.977 34H285.193L280.585 55.76C280.414 56.4 280.329 57.0826 280.329 57.808C280.329 58.6613 280.521 59.28 280.905 59.664C281.331 60.0053 282.014 60.176 282.953 60.176C284.19 60.176 285.342 59.664 286.409 58.64C287.475 57.5733 288.243 56.208 288.713 54.544H291.401C289.822 59.152 287.795 62.288 285.321 63.952C282.846 65.5733 280.393 66.384 277.961 66.384Z" fill="white"/>
<path d="M293.551 31.632H302.767L301.743 36.432C303.877 34.5973 306.373 33.68 309.231 33.68C311.621 33.68 313.519 34.4693 314.927 36.048C316.335 37.6266 317.039 40.208 317.039 43.792C317.039 47.1626 316.549 50.576 315.567 54.032C314.586 57.4453 312.922 60.368 310.575 62.8C308.229 65.1893 305.135 66.384 301.295 66.384C298.565 66.384 296.751 65.616 295.855 64.08L292.527 79.696L282.863 82L293.551 31.632ZM299.311 60.816C301.359 60.816 303.045 59.856 304.367 57.936C305.733 56.016 306.714 53.7333 307.311 51.088C307.951 48.4 308.271 45.904 308.271 43.6C308.271 40.0586 307.205 38.288 305.071 38.288C304.303 38.288 303.514 38.5653 302.703 39.12C301.935 39.6746 301.253 40.4426 300.655 41.424L296.879 59.344C297.221 60.3253 298.031 60.816 299.311 60.816Z" fill="white"/>
<g clip-path="url(#clip0_1510_3)">
<path d="M33.2742 84.0341C33.2742 84.0341 14.366 87.3283 4.63903 63.7419C0.56501 53.859 -0.409652 46.7636 0.116658 17.3682C0.116658 17.3682 20.5648 15.146 29.3561 37.1925C38.1474 59.239 31.5782 67.7964 31.5782 67.7964L23.0209 69.7457L31.8122 72.4943C33.4219 76.114 33.9303 80.1274 33.2742 84.0341Z" fill="#F47920"/>
<path d="M35.5743 84.0343C35.5743 84.0343 54.8333 87.4651 64.1315 63.6642C70.5446 47.4461 69.2386 29.3762 68.7123 0.000294626C68.7123 0.000294626 48.2642 -2.22193 39.4729 19.8246C30.6816 41.8711 37.1922 67.7187 37.1922 67.7187L45.7496 69.668L36.9583 72.4165C35.3596 76.0674 34.878 80.11 35.5743 84.0343Z" fill="#F47920"/>
</g>
<defs>
<clipPath id="clip0_1510_3">
<rect width="69.2779" height="84.19" fill="white"/>
</clipPath>
</defs>
</svg>
